<svg aria-hidden="true" style="position: absolute; width: 0; height: 0; overflow: hidden;" version="1.1" xmlns="http://www.w3.org/2000/svg" xmlns:xlink="http://www.w3.org/1999/xlink">
<defs>
<symbol id="icon-disabled" viewBox="0 0 47 32">
<title>disabled</title>
<path d="M46.351 16.766c-0.024-0.013-0.557-0.331-1.474-0.742-3.885-6.005-8.873-13.323-11.153-15.016-1.459-1.084-3.091-1.306-4.474-0.61-1.688 0.849-2.737 2.946-2.737 5.474 0 0.813 0.661 1.472 1.474 1.472s1.472-0.659 1.472-1.472c0-1.568 0.578-2.573 1.114-2.842 0.369-0.186 0.84-0.072 1.395 0.343 1.269 0.943 4.346 5.039 8.425 11.183-4.002-0.862-9.444-0.851-14.475 3.1h-4.847c-4.971-3.928-10.364-3.96-14.353-3.112 2.936-4.427 6.897-10.020 8.446-11.17 0.555-0.412 1.026-0.527 1.395-0.343 0.536 0.271 1.114 1.274 1.114 2.842 0 0.813 0.661 1.472 1.474 1.472s1.472-0.659 1.472-1.472c0-2.528-1.048-4.627-2.737-5.474-1.384-0.698-3.016-0.476-4.474 0.608-2.839 2.108-9.658 12.666-11.13 14.974-0.973 0.429-1.545 0.768-1.57 0.783-0.695 0.422-0.915 1.325-0.495 2.020 0.26 0.429 0.702 0.676 1.167 0.706 0.085 2.562 0.653 7.070 3.394 10.033 1.756 1.897 4.088 2.861 6.935 2.861 3.038 0 5.485-0.988 7.272-2.94 2.509-2.741 2.999-6.667 3.061-8.843h2.974c0.062 2.176 0.55 6.104 3.061 8.843 1.788 1.95 4.235 2.94 7.272 2.94 2.846 0 5.18-0.962 6.936-2.861 2.739-2.961 3.307-7.467 3.392-10.031 0.465-0.030 0.907-0.277 1.169-0.706 0.422-0.695 0.201-1.6-0.493-2.022zM16.8 27.464c-1.222 1.329-2.888 1.976-5.092 1.976-2.016 0-3.575-0.625-4.768-1.909-2.547-2.744-2.658-7.654-2.622-9.242 3.125-1.244 9.227-2.711 14.78 1.576 0.023 1.466-0.152 5.267-2.298 7.599zM40.117 27.531c-1.192 1.286-2.75 1.909-4.768 1.909-2.202 0-3.87-0.648-5.092-1.976-2.17-2.36-2.323-6.229-2.3-7.654 5.585-4.222 11.665-2.761 14.78-1.521 0.036 1.589-0.075 6.498-2.62 9.242z"></path>
</symbol>
</defs>
</svg>
