<svg aria-hidden="true" style="position: absolute; width: 0; height: 0; overflow: hidden;" version="1.1" xmlns="http://www.w3.org/2000/svg" xmlns:xlink="http://www.w3.org/1999/xlink">
<defs>
<symbol id="icon-lion-form" viewBox="0 0 25 32">
<title>lion-form</title>
<path fill="#fff" style="fill: var(--color1, #fff)" d="M14.276 1.090c-0.084-0.063-0.178-0.091-0.242-0.103-0.137-0.027-0.278-0.006-0.414 0.030 0.163 0.079 0.34 0.172 0.34 0.363 0.001 0.202-0.066 0.362-0.131 0.516-0.040 0.096-0.079 0.2-0.096 0.311 0.076 0.011 0.139 0.022 0.199 0.039 0.072 0.020 0.181 0.053 0.26 0.077 0.088-0.14 0.272-0.473 0.271-0.808 0-0.070-0.009-0.134-0.026-0.191-0.029-0.095-0.083-0.174-0.162-0.233z"></path>
<path fill="#fff" style="fill: var(--color1, #fff)" d="M12.038 1.181c-0.021 0.018-0.040 0.032-0.062 0.045-0.040 0.022-0.080 0.041-0.12 0.060-0.116 0.056-0.175 0.095-0.175 0.147 0 0.127 0.056 0.249 0.116 0.379 0.050 0.11 0.103 0.239 0.127 0.385 0.060-0.001 0.12-0.001 0.18-0.001 0.069 0 0.137 0 0.205 0.001 0.085 0.001 0.167 0.002 0.245 0.002h0.006l-0.002-0.922c-0.080-0.018-0.232-0.047-0.52-0.097z"></path>
<path fill="#fff" style="fill: var(--color1, #fff)" d="M12.308 2.47c-0.097-0.001-0.192-0.002-0.287-0.002-0.311 0-0.662 0.010-0.907 0.080 0.002 0.092 0.005 0.229 0.007 0.34 0.036-0.003 0.077-0.006 0.122-0.009l0.241-0.015c0.322-0.020 0.922-0.053 1.337-0.054h0.048c0.265 0 0.463 0.004 0.644 0.012 0.185 0.009 0.348 0.022 0.551 0.040l0.014 0.002c0.017-0.007 0.034-0.013 0.051-0.019l-0.011-0.263c-0.079-0.024-0.191-0.058-0.257-0.076-0.133-0.036-0.278-0.052-0.486-0.052-0.102 0-0.21 0.004-0.327 0.008l-0.046 0.002c-0.203 0.006-0.442 0.009-0.695 0.006z"></path>
<path fill="#fff" style="fill: var(--color1, #fff)" d="M11.637 1.033c-0.021-0.005-0.044-0.010-0.070-0.014-0.057-0.011-0.112-0.016-0.158-0.016-0.185 0-0.346 0.072-0.442 0.196-0.021 0.028-0.039 0.057-0.053 0.088-0.014 0.032-0.025 0.068-0.032 0.105-0.006 0.032-0.009 0.065-0.009 0.101 0.001 0.348 0.107 0.644 0.172 0.792 0.153-0.043 0.342-0.068 0.604-0.079-0.022-0.102-0.061-0.197-0.099-0.278-0.069-0.15-0.14-0.306-0.141-0.493-0.001-0.223 0.177-0.318 0.304-0.38-0.003-0.001-0.005-0.002-0.008-0.003-0.024-0.008-0.048-0.014-0.070-0.020z"></path>
<path fill="#fff" style="fill: var(--color1, #fff)" d="M13.28 1.128l-0.003 0.001c-0.135 0.050-0.282 0.102-0.45 0.146l0.002 0.921c0.073-0.002 0.146-0.003 0.211-0.005 0.153-0.006 0.292-0.010 0.423-0.007 0.020-0.149 0.068-0.278 0.116-0.395 0.057-0.136 0.111-0.264 0.111-0.41-0.009-0.033-0.148-0.1-0.207-0.129-0.090-0.043-0.154-0.082-0.203-0.124z"></path>
<path fill="#fff" style="fill: var(--color1, #fff)" d="M18.134 11.225c-0.056-0.004-0.111-0.009-0.16-0.014-0.050-0.006-0.099-0.013-0.143-0.022l-0.038-0.009c-0.233-0.054-0.402-0.153-0.547-0.318-0.126-0.142-0.233-0.335-0.371-0.664l-0.005-0.012c-0.203-0.473-0.725-1.012-1.221-1.258-0.091-0.045-0.177-0.077-0.254-0.097-0.075-0.019-0.141-0.025-0.197-0.017l-0.042 0.006c-0.016 0.009-0.032 0.017-0.051 0.025-0.118 0.046-0.253 0.075-0.418 0.087 0.283 0.283 0.628 0.77 0.514 1.388 0.591 0.457 0.941 0.986 0.965 1.46 0.032 0.047 0.069 0.089 0.106 0.134l0.033 0.039c0.455 0.132 0.807 0.193 1.11 0.193v0.063l0.003-0.063c0.348-0.001 0.62-0.085 0.834-0.259 0.278-0.226 0.394-0.492 0.442-0.669-0.16 0.014-0.371 0.017-0.56 0.006z"></path>
<path fill="#fff" style="fill: var(--color1, #fff)" d="M8.011 11.179l-0.002 0.014-0.102-0.017c-0.091 0.006-0.268 0.091-0.455 0.182-0.301 0.146-0.674 0.327-1.032 0.328-0.089 0-0.178-0.007-0.245-0.014 0.002 0.174 0.076 0.485 0.521 0.709 0.054-0.006 0.178-0.022 0.452-0.064v-0.001l0.152-0.023c0.292-0.042 0.69-0.1 1.609-0.43 0.069-0.025 0.131-0.048 0.185-0.070-0.233-0.028-0.349-0.108-0.497-0.212l-0.094-0.065c-0.13-0.085-0.276-0.193-0.393-0.345-0.031 0.005-0.065 0.008-0.099 0.008z"></path>
<path fill="#fff" style="fill: var(--color1, #fff)" d="M3.481 12.527c0.060 0.19 0.185 0.42 0.442 0.564 0.066 0.037 0.139 0.067 0.217 0.090 0.085 0.024 0.178 0.040 0.278 0.047 0.302 0.018 0.641-0.050 1.061-0.229 0.307-0.132 0.635-0.314 0.926-0.484-0.39-0.262-0.481-0.589-0.497-0.785-0.208 0.090-0.409 0.195-0.566 0.279-0.19 0.102-0.37 0.199-0.51 0.245l-0.083 0.028v-0.003c-0.484 0.149-1.001 0.219-1.266 0.248z"></path>
<path fill="#fff" style="fill: var(--color1, #fff)" d="M16.379 5.058c0.266 0.181 0.434 0.32 0.561 0.465 0.138 0.156 0.239 0.329 0.328 0.561 0.038 0.102 0.061 0.198 0.083 0.29 0.011 0 0.023 0 0.034 0v0c0.819 0 0.964-0.572 0.988-0.819-0.323-0.071-0.554-0.14-0.759-0.268-0.246-0.153-0.435-0.377-0.631-0.75-0.062-0.117-0.224-0.33-0.408-0.506l-0.027-0.025c-0.036-0.034-0.072-0.064-0.106-0.091-0.029-0.022-0.057-0.042-0.083-0.058h-0.002l-0.016-0.011c-0.13-0.076-0.26-0.131-0.396-0.165-0.1-0.026-0.21-0.039-0.329-0.039 0.005 0.053 0.010 0.107 0.010 0.169 0.001 0.551-0.109 0.756-0.197 0.883 0.253 0.038 0.612 0.133 0.95 0.363z"></path>
<path fill="#fff" style="fill: var(--color1, #fff)" d="M6.662 11.327c-0.061 0.028-0.118 0.056-0.173 0.085 0.28-0.023 0.591-0.174 0.844-0.297 0.046-0.022 0.091-0.044 0.134-0.064-0.087 0.004-0.264 0.053-0.475 0.135-0.11 0.043-0.224 0.091-0.329 0.141z"></path>
<path fill="#fff" style="fill: var(--color1, #fff)" d="M7.129 8.489c-0.013 0.127-0.008 0.233 0.016 0.321 0.032 0.121 0.099 0.219 0.211 0.305 0.67-0.053 1.285-0.183 1.78-0.376 0.060-0.024 0.119-0.048 0.175-0.074-0.218 0.022-0.426 0.042-0.604 0.052l-0.121 0.004c-0.029 0.002-0.058 0.003-0.084 0.003-0.609-0.001-1.122-0.147-1.371-0.234z"></path>
<path fill="#fff" style="fill: var(--color1, #fff)" d="M12.157 0.378c-0.001 0.090-0.002 0.206-0.002 0.286l0.44-0.065-0.006 0.102c-0.005 0.079-0.026 0.164-0.044 0.239-0.003 0.013-0.007 0.026-0.010 0.039 0.094 0.002 0.252 0.006 0.346 0.006-0.021-0.117-0.049-0.258-0.051-0.266l-0.021-0.101h0.102c0.035 0 0.139 0.013 0.347 0.045l0.003-0.281c-0.104 0.014-0.257 0.037-0.312 0.045-0.019 0.003-0.029 0.004-0.029 0.004l-0.086 0.014v-0.097c0-0.058 0.026-0.239 0.043-0.347l-0.343-0.001c0.019 0.118 0.053 0.331 0.053 0.343l0.016 0.1-0.11-0.015c-0.102-0.014-0.244-0.036-0.337-0.050z"></path>
<path fill="#fff" style="fill: var(--color1, #fff)" d="M1.109 6.522c-0.038 0.169-0.004 0.387 0.092 0.573 0.049 0.096 0.111 0.179 0.184 0.245 0.079 0.074 0.17 0.126 0.27 0.159 0.076 0.024 0.158 0.037 0.245 0.037 0.19 0 0.403-0.059 0.633-0.177l0.056-0.029 0.123 0.24-0.056 0.029c-0.277 0.141-0.542 0.21-0.783 0.204-0.040 0.099-0.065 0.192-0.075 0.283-0.011 0.099-0.005 0.207 0.019 0.321 0.146 0.051 0.395 0.221 0.36 0.79 0.020 0.011 0.043 0.022 0.068 0.033 0.031 0.013 0.065 0.027 0.101 0.040 0.184 0.065 0.387 0.104 0.543 0.104 0.083 0 0.162-0.010 0.237-0.028 0.252-0.060 0.426-0.208 0.527-0.322 0.121-0.135 0.211-0.3 0.247-0.453 0.010-0.043 0.015-0.082 0.015-0.116 0-0.038-0.003-0.078-0.008-0.117-0.003-0.020-0.006-0.040-0.010-0.060-0.004-0.019-0.008-0.039-0.012-0.057-0.018-0.075-0.037-0.118-0.048-0.132l-0.038-0.051 0.216-0.163 0.038 0.051c0.049 0.066 0.080 0.173 0.095 0.231 0.006 0.022 0.011 0.047 0.015 0.072s0.008 0.050 0.012 0.075c0.006 0.051 0.010 0.102 0.010 0.152 0 0.054-0.007 0.114-0.022 0.178-0.024 0.101-0.075 0.216-0.153 0.343 0.104 0.059 0.267 0.134 0.452 0.216 0.55 0.246 1.294 0.581 1.538 1.021 0.002-0.001 0.004-0.002 0.006-0.003 0.045-0.022 0.089-0.041 0.128-0.057-0.122-0.22-0.162-0.476-0.172-0.671-0.328-0.093-0.749-0.324-1.114-0.612-0.074-0.058-0.141-0.116-0.202-0.172-0.064-0.058-0.121-0.116-0.171-0.172l-0.042-0.048 0.197-0.18 0.043 0.043c0.046 0.052 0.096 0.102 0.156 0.158 0.058 0.053 0.121 0.107 0.186 0.159 0.309 0.244 0.665 0.446 0.951 0.541l0.007-0.086 0.134 0.010c0.294 0.020 0.595 0.024 0.904 0.012-0.064-0.083-0.106-0.168-0.13-0.256-0.042-0.163-0.042-0.353 0.003-0.599l0.030-0.166c-0.044-0.024-0.089-0.048-0.133-0.073l-0.023-0.013c-0.44-0.246-0.868-0.529-1.206-0.795-0.067-0.053-0.131-0.106-0.193-0.159s-0.118-0.105-0.169-0.155l-0.133-0.114 0.152-0.098c0.219-0.143 0.365-0.274 0.456-0.413 0.095-0.144 0.139-0.304 0.138-0.505-0-0.177-0.052-0.326-0.153-0.442-0.020-0.023-0.041-0.045-0.064-0.064s-0.046-0.037-0.070-0.053c-0.014-0.009-0.027-0.017-0.041-0.024-0.192-0.013-0.345-0.039-0.467-0.079-0.044-0.014-0.085-0.032-0.127-0.052 0 0.022 0 0.045 0 0.069 0.006 0.225 0.013 0.533-0.153 1.016l-0.021 0.060-0.255-0.087 0.021-0.060c0.149-0.437 0.143-0.717 0.138-0.921-0.002-0.105-0.005-0.196 0.014-0.283-0.126-0.201-0.254-0.34-0.402-0.437-0.189-0.125-0.418-0.18-0.701-0.177-0.235 0.35-0.655 0.429-0.776 0.443-0.104 0.078-0.163 0.147-0.194 0.231-0.029 0.077-0.039 0.182-0.033 0.337 0.035 0.009 0.070 0.017 0.106 0.024 0.127 0.023 0.241 0.097 0.37 0.24 0.103 0.114 0.208 0.261 0.356 0.472l0.037 0.052-0.222 0.155-0.037-0.053c-0.142-0.202-0.242-0.343-0.335-0.445-0.086-0.096-0.155-0.145-0.218-0.156-0.088-0.016-0.164-0.037-0.239-0.056-0.14-0.038-0.274-0.074-0.466-0.085-0.115-0.009-0.2 0.008-0.27 0.050-0.065 0.038-0.13 0.108-0.204 0.219 0.105 0.521-0.17 0.761-0.292 0.839z"></path>
<path fill="#fff" style="fill: var(--color1, #fff)" d="M17.039 31.586c0.124-0.062 0.299-0.096 0.42-0.112-0.002-0.073-0.009-0.139-0.023-0.199-0.032-0.145-0.098-0.26-0.196-0.34-0.102-0.084-0.201-0.099-0.238-0.102-0.005 0-0.009-0-0.012-0-0.020 0-0.029 0.001-0.037 0.003-0.024 0.007-0.118 0.084-0.227 0.237-0.023 0.032-0.045 0.064-0.064 0.097-0.021 0.035-0.042 0.072-0.060 0.109-0.062 0.127-0.086 0.254-0.074 0.392 0.007 0.083 0.027 0.171 0.060 0.266 0.121-0.117 0.297-0.274 0.451-0.35z"></path>
<path fill="#fff" style="fill: var(--color1, #fff)" d="M15.899 29.923c0.033-0.158 0.048-0.445-0.19-0.659-0.124 0.021-0.493 0.11-0.672 0.423-0.084 0.147-0.096 0.331-0.089 0.468 0.185-0.118 0.461-0.264 0.691-0.265 0.053 0 0.14 0.011 0.262 0.034z"></path>
<path fill="#fff" style="fill: var(--color1, #fff)" d="M9.557 4.953c-0.004 0.251 0.037 0.417 0.126 0.505 0.080 0.080 0.213 0.116 0.431 0.116 0.102 0 0.164-0.008 0.224-0.015 0.069-0.009 0.135-0.018 0.24-0.018l0.055 0.001c0.135 0 0.245-0.060 0.351-0.119 0.106-0.058 0.214-0.119 0.341-0.119 0.122 0 0.215 0.015 0.3 0.049l0.065 0.025-0.002 0.004c0.054 0.028 0.109 0.067 0.174 0.12 0.167 0.138 0.266 0.272 0.323 0.433 0.057 0.163 0.068 0.349 0.066 0.579-0.004 0.546-0.058 0.918-0.168 1.135-0.111 0.222-0.26 0.26-0.376 0.267-0.088 0.007-0.387 0.026-0.672 0.026-0.174 0-0.313-0.008-0.413-0.022-0.061-0.009-0.122-0.021-0.187-0.035-0.043-0.009-0.090-0.018-0.15-0.029-0.099-0.017-0.17-0.032-0.242-0.060-0.067-0.026-0.126-0.060-0.219-0.118-0.018-0.011-0.042-0.028-0.069-0.047l-0.031-0.022c-0.013-0.010-0.025-0.017-0.036-0.025-0.002 0.055-0.006 0.12-0.013 0.189-0.025 0.222-0.089 0.425-0.19 0.603l0.079-0.009c0.328-0.035 0.667-0.071 0.861-0.072 0 0 0.001 0 0.001 0 0.051 0 0.115 0.005 0.194 0.015 0.053 0.007 0.109 0.015 0.165 0.025s0.118 0.021 0.184 0.034c0.284 0.057 0.534 0.13 0.69 0.2 0.092-0.006 0.332-0.017 0.586-0.029l0.463-0.023c0.060-0.035 0.117-0.077 0.171-0.125 0.065-0.057 0.129-0.125 0.189-0.201 0.289-0.364 0.53-0.952 0.415-1.45l-0.014-0.062 0.264-0.059 0.014 0.061c0.135 0.584-0.138 1.264-0.468 1.678-0.072 0.090-0.146 0.169-0.22 0.235-0.009 0.009-0.018 0.016-0.027 0.023 0.3 0.099 0.771 0.267 1.020 0.795 0.082 0.050 0.323 0.213 0.392 0.447 0.004 0.002 0.008 0.003 0.011 0.004 0.019 0.007 0.038 0.014 0.057 0.024 0.14 0.069 0.285 0.153 0.433 0.251 0.038-0.709-0.663-1.203-0.694-1.225l-0.392-0.266 0.474 0.020c0.301 0.013 0.516-0.012 0.675-0.074 0.135-0.053 0.222-0.13 0.332-0.234 0.173-0.163 0.254-0.361 0.293-0.498-0.356-0.007-0.629-0.103-0.811-0.286-0.221-0.222-0.221-0.496-0.221-0.507v-0.15l0.15 0.016c0.644 0.069 0.935-0.323 1.048-0.556-0.129-0.014-0.241-0.040-0.34-0.078-0.151-0.057-0.271-0.141-0.367-0.257-0.163-0.197-0.177-0.558-0.19-0.908-0.004-0.107-0.008-0.213-0.016-0.317l-0.006-0.064 0.075-0.010-0.002-0.074 0.102-0.004c0.024 0 0.049 0 0.074 0.002 0.015-0.030 0.033-0.060 0.056-0.094 0.074-0.103 0.173-0.243 0.172-0.763 0-0.301-0.048-0.512-0.087-0.635-0.248 0.099-0.407 0.192-0.51 0.299-0.116 0.119-0.178 0.272-0.209 0.509-0.029 0.225-0.005 0.553-0.002 0.59l0.014 0.148-0.148 0.001c-0.171 0-0.292-0.009-0.407-0.051-0.124-0.046-0.231-0.128-0.344-0.267l-0.040-0.050 0.21-0.171 0.040 0.049c0.081 0.1 0.15 0.155 0.228 0.184 0.045 0.016 0.098 0.026 0.169 0.030-0.006-0.138-0.009-0.338 0.012-0.499 0.039-0.299 0.122-0.497 0.282-0.662 0.078-0.081 0.176-0.153 0.3-0.222-0.095-0.008-0.191-0.011-0.291-0.011-0.218 0.001-0.391 0.037-0.531 0.111-0.116 0.061-0.214 0.151-0.3 0.274-0.074 0.107-0.119 0.265-0.116 0.404 0.001 0.028 0.003 0.056 0.008 0.085 0.005 0.026 0.012 0.053 0.021 0.077l0.023 0.059-0.247 0.095-0.026-0.052c-0.019-0.048-0.030-0.090-0.038-0.133-0.007-0.040-0.011-0.083-0.012-0.126-0.004-0.196 0.059-0.411 0.165-0.562 0.045-0.066 0.098-0.126 0.161-0.182-0.058-0.004-0.117-0.008-0.179-0.010-0.179-0.009-0.373-0.012-0.632-0.012h-0.046c-0.375 0.001-0.926 0.029-1.322 0.054-0.084 0.005-0.165 0.010-0.239 0.015-0.058 0.004-0.113 0.008-0.161 0.011-0.020 0.075-0.047 0.16-0.052 0.17l-0.025 0.051-0.039-0.014-0.002 0.050-0.064-0.003c-0.060-0.003-0.122-0.003-0.183 0.001-0.201 0.010-0.391 0.051-0.534 0.115-0.1 0.045-0.227 0.124-0.27 0.246-0.010 0.030-0.015 0.062-0.015 0.097 0 0.063 0.027 0.114 0.053 0.147 0.086-0.021 0.146-0.041 0.185-0.054 0.105-0.036 0.181-0.064 0.353-0.051l0.063 0.005-0.019 0.271-0.063-0.005c-0.112-0.007-0.159 0.008-0.246 0.037-0.072 0.024-0.154 0.053-0.289 0.080-0.17 0.036-0.264 0.086-0.314 0.168-0.054 0.088-0.077 0.228-0.081 0.483zM11.084 3.553l0.001 0.001c0.017-0.058 0.084-0.211 0.178-0.29l0.049-0.040 0.174 0.207-0.048 0.041c-0.003 0.003-0.007 0.006-0.011 0.011 0.511 0.091 0.733 0.44 0.758 0.483l0.153 0.263-0.297-0.061c-0.104-0.021-0.387-0.053-0.628-0.053v-0.064l-0.006 0.064c-0.042 0-0.083 0.002-0.121 0.004-0.034 0.003-0.063 0.006-0.086 0.011l-0.062 0.013-0.059-0.263 0.077-0.017c-0.017-0.041-0.033-0.086-0.041-0.133l-0.087-0.003 0.056-0.173z"></path>
<path fill="#fff" style="fill: var(--color1, #fff)" d="M24.709 22.369c0.023-0.083 0.037-0.169 0.044-0.256 0.003-0.039 0.005-0.078 0.005-0.116-0.001-0.276-0.096-0.461-0.183-0.572-0.142 0.409-0.341 0.427-0.816 0.471-0.149 0.014-0.317 0.031-0.522 0.060-0.85 0.125-1.070 0.516-1.072 0.52l-0.135 0.25-0.119-0.030-0.001-0.284c-0.001-0.368-0.177-0.739-0.448-0.945-0.062-0.047-0.128-0.085-0.196-0.114-0.073-0.030-0.15-0.052-0.23-0.062-0.044-0.006-0.089-0.009-0.136-0.009-0.14 0-0.37 0.092-0.614 0.245-0.058 0.037-0.116 0.076-0.171 0.117-0.053 0.040-0.105 0.081-0.154 0.124-0.047 0.042-0.089 0.084-0.125 0.125-0.204 0.229-0.363 0.399-0.554 0.506-0.182 0.101-0.388 0.143-0.708 0.144-0.435 0-0.739-0.135-0.963-0.424-0.213-0.275-0.352-0.699-0.436-1.334-0.103-0.779-0.196-1.219-0.328-1.571-0.136-0.36-0.327-0.654-0.616-1.1l-0.033-0.052 0.217-0.15 0.037 0.046c0.029 0.039 0.664 0.886 2.348 0.886 0.508-0.002 1.069-0.151 1.589-0.422 0.101-0.052 0.201-0.11 0.296-0.17 0.096-0.061 0.188-0.125 0.274-0.19 0.030-0.023 0.062-0.049 0.096-0.075 0.314-0.258 0.548-0.539 0.712-0.859 0.192-0.374 0.29-0.81 0.288-1.293-0.002-0.679-0.044-0.845-0.184-1.394l-0.043-0.167c-0.124-0.489-0.264-1.036-0.41-1.586-0.171-0.638-0.328-1.196-0.48-1.704-0.331-1.101-0.561-1.96-0.722-2.702-0.205-0.944-0.306-1.72-0.307-2.372-0.002-0.954 0.165-1.271 0.311-1.552l0.020-0.040c0.166-0.314 0.325-0.512 0.516-0.64 0.187-0.124 0.405-0.18 0.704-0.18 0.576 0 0.945 0.114 1.138 0.349 0.148 0.18 0.165 0.399 0.155 0.585 0.141-0.006 0.314-0.011 0.494-0.015 0.188-0.005 0.377-0.008 0.532-0.010-0.004-0.108-0.014-0.212-0.029-0.308-0.018-0.115-0.045-0.224-0.078-0.328-0.159-0.478-0.497-0.808-0.979-0.952-0.063-0.019-0.128-0.036-0.195-0.051-0.115-0.026-0.237-0.046-0.363-0.060-0.13-0.015-0.265-0.024-0.402-0.026l-0.064-0.001c-0.421 0-1.215 0.066-1.799 0.51-0.373 0.284-0.634 0.661-0.796 1.153-0.137 0.412-0.202 0.9-0.201 1.492 0.002 0.768 0.119 1.648 0.359 2.691 0.221 0.962 0.527 1.973 0.773 2.786 0.221 0.734 0.403 1.437 0.579 2.118l0.028 0.108c0.041 0.156 0.081 0.311 0.126 0.483l0.030 0.115c0.137 0.515 0.227 0.856 0.229 1.633 0 0.126-0.009 0.249-0.027 0.366-0.092 0.586-0.409 1.036-0.942 1.336-0.498 0.281-1.047 0.343-1.259 0.356-0.056 0.004-0.109 0.006-0.157 0.006h-0.018c-0.041 0-0.081-0.002-0.12-0.005-0.145-0.008-0.292-0.032-0.435-0.072-0.138-0.037-0.278-0.089-0.415-0.156-0.658-0.322-1.204-0.95-1.536-1.769l-0.027-0.071c-0.187-0.504-0.226-1.099-0.263-1.674-0.008-0.119-0.016-0.237-0.025-0.357-0.045-0.056-0.089-0.11-0.133-0.16-0.104-0.119-0.215-0.234-0.329-0.339-0.107-0.099-0.218-0.189-0.33-0.271-0.458-0.333-0.964-0.524-1.387-0.524-0.93 0.002-1.913 0.839-2.022 0.935l-0.123 0.108-0.083-0.139c-0.014-0.023-0.029-0.051-0.044-0.083-0.013-0.028-0.026-0.061-0.037-0.097-0.047-0.148-0.068-0.349-0.059-0.574-0.236 0.031-0.56 0.175-0.951 0.356-0.127 0.058-0.255 0.118-0.391 0.177-0.455 0.2-0.919 0.324-1.384 0.37-0.084 0.008-0.167 0.014-0.249 0.018-0.056 0.002-0.111 0.003-0.166 0.003l-0.074-0.001c-0.004 0-0.007-0.001-0.010-0.001-0.402 0.267-1.114 0.574-1.744 0.845l-0.125 0.054c-0.023 0.013-0.094 0.060-0.168 0.109l-0.024 0.016c-0.343 0.226-0.982 0.646-1.627 0.95l-0.211 0.098 0.011-0.225c0.002-0.028 0.032-0.663-0.446-1.132-0.213-0.208-0.406-0.236-0.567-0.236-0.092 0-0.189 0.011-0.291 0.021l-0.067 0.007c-0.134 0.457-0.544 0.494-0.67 0.494-0.008 0-0.015-0.001-0.021-0.001-0.088 0.075-0.143 0.152-0.163 0.227-0.011 0.043-0.012 0.086-0.008 0.129 0.059-0.006 0.122-0.001 0.179 0.004 0.090 0.008 0.181 0.023 0.271 0.047 0.055 0.014 0.109 0.031 0.161 0.051v-0.003l0.089 0.039c0.373 0.165 0.674 0.471 0.804 0.816l0.022 0.059-0.253 0.095-0.022-0.059c-0.106-0.279-0.353-0.527-0.661-0.664l-0.034-0.015c-0.057-0.023-0.116-0.043-0.175-0.058-0.074-0.019-0.15-0.032-0.226-0.039-0.041-0.003-0.081-0.005-0.119-0.005-0.305 0.001-0.55 0.092-0.692 0.257-0.027 0.032-0.051 0.068-0.070 0.105s-0.033 0.077-0.042 0.119c-0.005 0.020-0.008 0.042-0.010 0.065 0.009 0.038 0.021 0.097 0.033 0.165 0.019 0.105 0.029 0.188 0.029 0.247 0 0.242-0.063 0.383-0.124 0.463 0.003 0.013 0.006 0.025 0.010 0.037 0.010 0.035 0.021 0.069 0.033 0.1 0.053 0.136 0.129 0.253 0.217 0.335 0.137-0.145 0.31-0.261 0.504-0.336 0.146-0.056 0.3-0.092 0.458-0.106l0.063-0.006 0.023 0.27-0.063 0.006c-0.133 0.011-0.262 0.041-0.384 0.088-0.195 0.075-0.356 0.19-0.466 0.331-0.109 0.139-0.159 0.298-0.146 0.457 0.004 0.041 0.014 0.086 0.031 0.139 0.083 0.040 0.165 0.102 0.234 0.174 0.019 0.020 0.038 0.042 0.055 0.064s0.035 0.047 0.050 0.072c0.086 0.138 0.087 0.434 0.078 0.614 0.013 0.017 0.026 0.032 0.041 0.048l0.018 0.019c0.026 0.025 0.055 0.051 0.087 0.075 0.038 0.028 0.078 0.053 0.12 0.077 0.184 0.101 0.418 0.157 0.658 0.157 0.046 0 0.085-0.002 0.123-0.006 0.066-0.006 0.132-0.017 0.198-0.032 0.063-0.016 0.124-0.036 0.182-0.059 0.232-0.095 0.413-0.253 0.484-0.419-0.095-0.121-0.165-0.245-0.209-0.369-0.070-0.196-0.093-0.397-0.067-0.568 0.021-0.134 0.073-0.248 0.149-0.33l0.044-0.047 0.197 0.186-0.043 0.046c-0.040 0.042-0.067 0.106-0.079 0.186-0.020 0.127 0 0.282 0.054 0.436 0.057 0.16 0.148 0.305 0.256 0.407 0.096 0.091 0.203 0.145 0.315 0.163 0.283 0.043 0.548 0.006 0.746-0.102 0.035-0.019 0.067-0.041 0.096-0.062 0.018-0.013 0.034-0.028 0.050-0.044 0.028-0.141 0.159-0.616 0.639-0.675 0.030-0.060 0.060-0.138 0.084-0.22 0.009-0.032 0.017-0.060 0.023-0.087 0.007-0.029 0.012-0.057 0.017-0.086 0.008-0.048 0.012-0.090 0.012-0.127-0-0.439-0.207-0.732-0.33-0.867-0.036-0.040-0.074-0.076-0.113-0.108-0.038-0.032-0.075-0.057-0.11-0.077-0.020-0.011-0.038-0.021-0.055-0.029l-0.058-0.026 0.111-0.246 0.057 0.026c0.027 0.012 0.054 0.026 0.081 0.042 0.049 0.029 0.099 0.063 0.146 0.102 0.049 0.040 0.097 0.086 0.142 0.136 0.101 0.11 0.187 0.243 0.254 0.387 0.35-0.061 0.688-0.187 0.939-0.279l0.256-0.093 0.058 0.091c0.006 0.009 0.489 0.785 1.526 0.785 0.047 0 0.091-0.002 0.136-0.004 0.076-0.005 0.153-0.012 0.228-0.023 0.076-0.011 0.148-0.025 0.218-0.042 0.198-0.047 0.383-0.119 0.538-0.207-0.076-0.021-0.151-0.047-0.223-0.077-0.398-0.167-0.743-0.478-0.922-0.834l-0.028-0.056 0.242-0.122 0.029 0.056c0.15 0.299 0.444 0.562 0.785 0.706 0.074 0.031 0.149 0.055 0.222 0.074 0.078 0.019 0.155 0.032 0.23 0.038 0.040 0.004 0.078 0.005 0.114 0.005 0.131 0 0.283-0.039 0.453-0.114 0.142-0.064 0.298-0.154 0.476-0.275 0.239-0.163 0.355-0.323 0.41-0.434-0.967-0.007-1.194-0.526-1.203-0.548l-0.052-0.128 0.129-0.050c0.726-0.282 1.425-0.425 2.078-0.425 0.063 0 0.127 0.002 0.191 0.005 0.153 0.007 0.306 0.022 0.455 0.046 0.122 0.019 0.246 0.046 0.369 0.078v-0.005l0.154 0.048 0.021 0.070c0.009 0.027 0.222 0.671 0.997 0.671 0.019 0 0.038-0.001 0.058-0.001l0.063-0.003 0.011 0.27-0.063 0.003c-0.137 0.005-0.257-0.007-0.387-0.037 0.012 0.122 0.078 0.244 0.186 0.346 0.12 0.114 0.281 0.194 0.463 0.232 0.115 0.024 0.236 0.030 0.361 0.020l0.063-0.006 0.023 0.269-0.065 0.007c-0.153 0.013-0.302 0.005-0.44-0.025-0.231-0.049-0.436-0.152-0.593-0.299-0.158-0.149-0.254-0.335-0.271-0.524-0.004-0.035-0.001-0.070 0.003-0.104-0.401-0.184-0.582-0.525-0.643-0.666-0.116-0.031-0.235-0.056-0.355-0.075-0.136-0.021-0.278-0.036-0.424-0.042-0.629-0.029-1.294 0.087-1.996 0.341 0.125 0.122 0.425 0.299 1.043 0.26l0.158-0.010-0.016 0.158c0 0-0.026 0.408-0.579 0.784-0.191 0.131-0.361 0.229-0.519 0.299-0.022 0.010-0.045 0.018-0.068 0.026 0.087 0.079 0.218 0.134 0.466 0.228l0.031 0.012c0.067 0.026 0.141 0.054 0.217 0.084 0.096 0.038 0.19 0.090 0.28 0.156 0.082 0.060 0.162 0.132 0.235 0.212 0.066 0.071 0.131 0.153 0.191 0.243 0.227 0.336 0.35 0.723 0.35 0.916 0 0.053-0.002 0.106-0.006 0.16-0.016 0.235-0.067 0.508-0.116 0.773-0.062 0.332-0.124 0.667-0.124 0.928 0.001 0.231 0.068 0.414 0.139 0.609 0.066 0.179 0.135 0.364 0.154 0.595 0.034 0.394 0.081 0.686 0.152 0.946 0.081 0.296 0.199 0.566 0.369 0.848 0.073 0.119 0.142 0.232 0.209 0.339 0.332 0.532 0.618 0.991 0.619 1.421 0.001 0.348-0.060 0.595-0.125 0.759 0.158-0.023 0.391-0.082 0.632-0.233 0.221-0.138 0.394-0.277 0.544-0.438 0.163-0.176 0.302-0.391 0.413-0.638-0.227-0.167-0.421-0.343-0.578-0.524-0.132-0.152-0.241-0.308-0.325-0.466-0.090-0.17-0.153-0.341-0.184-0.511-0.010-0.052-0.017-0.105-0.020-0.157l-0.005-0.063 0.27-0.020 0.005 0.064c0.004 0.043 0.009 0.085 0.017 0.128 0.026 0.141 0.078 0.287 0.156 0.433 0.074 0.14 0.172 0.28 0.29 0.416 0.567 0.655 1.526 1.148 2.231 1.148 0.949-0.002 1.836-0.476 1.845-0.48l0.134-0.070 0.060 0.15c0.030 0.076 0.058 0.164 0.085 0.26 0.027 0.099 0.053 0.208 0.075 0.324 0.128 0.654 0.16 1.419 0.080 1.951-0.036 0.245-0.092 0.382-0.192 0.475-0.102 0.093-0.239 0.132-0.472 0.132-0 0-0 0-0 0-0.233 0-0.382-0.025-0.495-0.080-0.123-0.060-0.188-0.147-0.251-0.231-0.283-0.379-0.507-0.613-0.727-0.759-0.212-0.141-0.428-0.204-0.701-0.204-0.436 0.001-0.529 0.163-0.592 0.302 0.045 0.092 0.069 0.207 0.069 0.335 0.001 0.358-0.196 0.556-0.285 0.626-0.008 0.054-0.013 0.123-0.008 0.2 0.003 0.046 0.013 0.096 0.030 0.15 0.020-0.016 0.041-0.032 0.064-0.047 0.090-0.059 0.174-0.093 0.248-0.101 0.021-0.003 0.046-0.004 0.075-0.006 0.027-0.002 0.061-0.003 0.101-0.004l0.080-0c0.15 0 0.428 0.008 0.619 0.059l0.061 0.017-0.071 0.262-0.061-0.016c-0.16-0.044-0.409-0.051-0.542-0.051l-0.080 0.001c-0.034 0-0.066 0.002-0.094 0.003-0.025 0.001-0.045 0.003-0.057 0.004-0.024 0.003-0.064 0.014-0.13 0.058-0.051 0.034-0.099 0.074-0.143 0.113-0.159 0.137-0.187 0.301-0.213 0.46 0.394 0.362 0.286 0.858 0.243 1.003 0.011 0.026 0.021 0.052 0.034 0.077 0.019 0.037 0.041 0.072 0.064 0.104 0.082 0.114 0.192 0.201 0.317 0.251-0.011-0.227 0.017-0.52 0.167-0.787v-0l0.009-0.015c0.141-0.241 0.308-0.398 0.513-0.48 0.184-0.073 0.392-0.086 0.672-0.042l0.063 0.010-0.041 0.266-0.063-0.011c-0.23-0.035-0.393-0.028-0.53 0.027-0.148 0.058-0.268 0.175-0.379 0.365-0.155 0.266-0.152 0.581-0.134 0.757 0.025-0.014 0.047-0.023 0.066-0.027 0.039-0.008 0.079-0.010 0.124-0.008 0.135 0.009 0.277 0.069 0.392 0.163 0.144 0.117 0.243 0.287 0.288 0.49 0.017 0.079 0.026 0.173 0.026 0.277 0.030 0.010 0.064 0.022 0.096 0.036 0.21 0.094 0.345 0.153 0.477 0.176 0.125 0.022 0.248 0.015 0.497-0.026 0.366-0.061 0.612-0.206 0.775-0.456 0.166-0.254 0.254-0.634 0.272-1.163l0.004-0.131h0.132c0.005 0 0.015 0 0.030-0-0.087-0.126-0.134-0.299-0.194-0.614l-0.012-0.062 0.266-0.050 0.012 0.062c0.098 0.513 0.133 0.536 0.404 0.717l0.074 0.050c0.415 0.279 0.845 0.386 1.264 0.315 0.069-0.011 0.137-0.028 0.202-0.048s0.128-0.043 0.184-0.068l0.014-0.009 0.004 0c0.283-0.13 0.328-0.362 0.334-0.551 0.001-0.028 0.001-0.053 0.001-0.077-0.031-0.029-0.061-0.059-0.086-0.093-0.037-0.050-0.067-0.103-0.088-0.158l-0.005-0.012c-0.009-0.024-0.017-0.048-0.023-0.071-0.013-0.054-0.020-0.111-0.020-0.168-0-0.279 0.086-0.534 0.134-0.654-0.073-0.143-0.15-0.249-0.236-0.324-0.1-0.087-0.213-0.136-0.344-0.15-0.402-0.041-0.723 0.226-0.726 0.229l-0.337 0.274 0.121-0.416c0.364-1.246 1.223-1.437 1.567-1.462-0.034-0.699-0.070-1.493-0.070-1.498l-0.006-0.148 0.15 0.010c0.452 0.032 0.809-0.025 1.091-0.16 0.208-0.1 0.37-0.243 0.481-0.427 0.096-0.157 0.153-0.344 0.166-0.542 0.011-0.167-0.012-0.338-0.064-0.49-0.163 0.086-0.33 0.133-0.496 0.139-0.352 0.012-0.628 0.038-0.843 0.079-0.331 0.064-0.412 0.142-0.431 0.182l-0.026 0.057-0.246-0.115 0.027-0.057c0.073-0.157 0.277-0.266 0.624-0.334 0.226-0.043 0.516-0.071 0.886-0.084 0.359-0.012 0.679-0.237 0.857-0.601 0.040-0.073 0.069-0.152 0.090-0.231zM8.229 15.528c-0.284 0.097-0.525 0.182-0.735 0.258-0.575 0.205-0.915 0.326-1.267 0.369l-0.064 0.008-0.032-0.269 0.063-0.008c0.323-0.040 0.652-0.157 1.197-0.351 0.216-0.077 0.463-0.165 0.75-0.263l0.060-0.021 0.087 0.257-0.060 0.020z"></path>
<path fill="#fff" style="fill: var(--color1, #fff)" d="M22.718 29.368c0.097-0.051 0.267-0.113 0.515-0.114 0.224 0 0.388 0.045 0.5 0.096 0.001-0.201-0.034-0.519-0.252-0.64-0.158-0.089-0.491-0.129-0.765-0.138-0.040 0.107-0.103 0.308-0.102 0.522 0 0.034 0.005 0.068 0.013 0.101l0.002 0.016c0.003 0.003 0.008 0.018 0.014 0.034 0.013 0.032 0.032 0.064 0.054 0.096 0.007 0.010 0.014 0.019 0.022 0.027z"></path>
<path fill="#fff" style="fill: var(--color1, #fff)" d="M15.418 27.586c0.206 0 0.37 0.078 0.469 0.14 0.060-0.061 0.145-0.182 0.144-0.381-0-0.101-0.018-0.166-0.032-0.202-0.097-0.010-0.19-0.012-0.279-0.008-0.233 0.011-0.433 0.074-0.579 0.18-0.125 0.091-0.204 0.212-0.232 0.35 0.089-0.013 0.212-0.034 0.334-0.061 0.058-0.012 0.116-0.018 0.174-0.018z"></path>
<path fill="#fff" style="fill: var(--color1, #fff)" d="M7.215 5.481c-0.002 0.032-0.002 0.064 0 0.098 0.016 0.215 0.061 0.386 0.14 0.521 0.077 0.133 0.188 0.233 0.34 0.307 0.25 0.12 0.54 0.201 0.884 0.245 0.332 0.043 0.677 0.049 0.971 0.049h0.056c0.085 0 0.175-0.005 0.265-0.010l0.027-0.002c0.111-0.007 0.22-0.012 0.332-0.012 0.233 0 0.545 0.024 0.885 0.208 0.447 0.243 0.616 0.524 0.679 0.709 0.014-0.016 0.029-0.038 0.045-0.069 0.059-0.117 0.1-0.309 0.121-0.571-0.151-0.008-0.373-0.042-0.535-0.164l-0.077-0.058c-0.19-0.144-0.323-0.233-0.649-0.233-0.214 0-0.265 0.028-0.319 0.056-0.080 0.043-0.163 0.087-0.434 0.087-0.143 0-0.308-0.001-0.46-0.010-0.173-0.011-0.311-0.029-0.42-0.058-0.268-0.072-0.507-0.189-0.711-0.35-0.038-0.030-0.074-0.060-0.106-0.091-0.035-0.032-0.067-0.065-0.096-0.096-0.153-0.166-0.228-0.434-0.202-0.72 0.005-0.052 0.013-0.104 0.024-0.155 0.011-0.048 0.024-0.095 0.040-0.14l0.004-0.011 0.017 0.003-0.016-0.006c0.038-0.105 0.096-0.223 0.15-0.326-0.211 0.031-0.428 0.116-0.598 0.235-0.153 0.107-0.339 0.292-0.36 0.564z"></path>
<path fill="#fff" style="fill: var(--color1, #fff)" d="M11.668 3.852c-0.071-0.037-0.159-0.072-0.267-0.093 0.012 0.033 0.028 0.062 0.045 0.085 0.069 0.001 0.144 0.004 0.221 0.009z"></path>
<path fill="#fff" style="fill: var(--color1, #fff)" d="M2.659 3.743c-0.082 0-0.17 0.011-0.262 0.030 0.176 0.128 0.384 0.338 0.428 0.635 0.146-0.035 0.351-0.115 0.477-0.301-0.059-0.115-0.235-0.365-0.643-0.365z"></path>
<path fill="#fff" style="fill: var(--color1, #fff)" d="M5.095 4.868c0.088 0.029 0.195 0.049 0.326 0.061 0.022-0.096 0.045-0.27-0.007-0.481-0.019-0.078-0.055-0.194-0.15-0.293-0.061-0.064-0.143-0.117-0.244-0.158 0.047 0.195 0.069 0.486-0.073 0.804 0.045 0.027 0.093 0.049 0.148 0.067z"></path>
<path fill="#fff" style="fill: var(--color1, #fff)" d="M14.391 10.128c-0.157-0.077-0.313-0.141-0.466-0.188s-0.296-0.077-0.429-0.089c-0.042-0.004-0.081-0.006-0.117-0.006-0.522 0.002-1.321 0.119-2.139 0.314-0.157 0.038-0.315 0.079-0.47 0.121-0.141 0.039-0.278 0.079-0.407 0.119l-0.038 0.012c-0.062 0.020-0.117 0.037-0.164 0.053-0.232 0.078-0.449 0.126-0.683 0.152-0.202 0.022-0.436 0.029-0.749 0.025-0.158-0.003-0.316-0.004-0.444-0.004l-0.126 0.001c0.028 0.135 0.077 0.248 0.148 0.347 0.095 0.131 0.227 0.227 0.342 0.304l0.088 0.060c0.167 0.116 0.262 0.182 0.544 0.182 0.508-0.001 0.731-0.127 0.989-0.272 0.216-0.121 0.458-0.258 0.873-0.34 0.585-0.117 1.292-0.083 1.372-0.078 0.046-0.011 0.594-0.109 1.096-0.11 0.59 0 1.411 0.291 1.926 0.561 0.103 0.054 0.196 0.108 0.274 0.159-0.22-0.536-0.849-1.040-1.422-1.323z"></path>
<path fill="#fff" style="fill: var(--color1, #fff)" d="M0.424 5.626c-0.143 0.056-0.225 0.159-0.271 0.257 0.031-0.002 0.061-0.003 0.090-0.003s0.059 0.001 0.088 0.003c0.284 0.021 0.523 0.147 0.694 0.364 0.082-0.079 0.169-0.232 0.114-0.506-0.091-0.048-0.309-0.148-0.523-0.148-0.071 0-0.136 0.011-0.193 0.034z"></path>
<path fill="#fff" style="fill: var(--color1, #fff)" d="M1.468 18.708c0.006-0.19-0.009-0.335-0.039-0.384-0.011-0.018-0.022-0.034-0.035-0.049s-0.025-0.032-0.039-0.045l-0.007-0.008c-0.053-0.054-0.105-0.091-0.142-0.112-0.092 0.041-0.336 0.16-0.428 0.311-0.015 0.025-0.027 0.051-0.036 0.078-0.010 0.029-0.017 0.060-0.022 0.093-0.017 0.115-0.004 0.246 0.034 0.368 0.126-0.103 0.35-0.227 0.714-0.253z"></path>
<path fill="#fff" style="fill: var(--color1, #fff)" d="M5.436 18.55c0.166 0.11 0.343 0.329 0.461 0.49 0.077-0.109 0.128-0.229 0.148-0.344 0.006-0.035 0.009-0.069 0.009-0.102s-0.004-0.067-0.011-0.099c-0.026-0.125-0.153-0.281-0.215-0.35-0.254 0.032-0.355 0.267-0.392 0.405z"></path>
<path fill="#fff" style="fill: var(--color1, #fff)" d="M3.33 26.999c0.307-0.080 0.462-0.312 0.521-0.428-0.123-0.112-0.293-0.209-0.481-0.274-0.044-0.014-0.086-0.027-0.126-0.037-0.041-0.011-0.079-0.017-0.114-0.022s-0.068-0.008-0.095-0.008c-0.041 0-0.099 0.014-0.165 0.040-0.036 0.014-0.071 0.030-0.104 0.048-0.074 0.040-0.139 0.084-0.187 0.128-0.001 0.001-0.002 0.002-0.002 0.002 0.224 0.088 0.596 0.27 0.754 0.55z"></path>
<path fill="#fff" style="fill: var(--color1, #fff)" d="M16.906 8.267c-0.17-0.384-0.346-0.657-0.555-0.86-0.187-0.181-0.413-0.318-0.712-0.427-0.208 0.152-0.456 0.23-0.737 0.232 0.066 0.164 0.269 0.412 0.887 0.374l0.156-0.009-0.013 0.155c0 0-0.037 0.472-0.406 0.822-0.009 0.009-0.018 0.016-0.027 0.024 0.085 0.024 0.176 0.060 0.27 0.107 0.552 0.274 1.135 0.879 1.356 1.408 0.050 0.119 0.096 0.218 0.139 0.303 0.195 0.005 0.664-0.019 1.059-0.317 0.258-0.195 0.331-0.462 0.352-0.618-0.387 0-0.704-0.074-0.97-0.226-0.333-0.19-0.594-0.507-0.797-0.968z"></path>
<path fill="#fff" style="fill: var(--color1, #fff)" d="M1.743 29.3c0.159-0.020 0.332-0.013 0.515 0.021 0.134-0.328 0.065-0.557 0.022-0.651-0.063-0.009-0.124-0.013-0.182-0.013-0.090 0-0.172 0.011-0.249 0.032-0.126 0.035-0.222 0.097-0.299 0.153-0.209 0.151-0.199 0.391-0.158 0.555 0.109-0.049 0.227-0.081 0.35-0.097z"></path>
<path fill="#fff" style="fill: var(--color1, #fff)" d="M0.844 16.368c0.021-0.041 0.048-0.123 0.048-0.276 0-0.042-0.009-0.112-0.024-0.2-0.005-0.026-0.010-0.052-0.014-0.075-0.176 0.001-0.498 0.030-0.694 0.227-0.089 0.089-0.143 0.206-0.16 0.347 0.089-0.034 0.18-0.055 0.275-0.066 0.161-0.018 0.345-0.004 0.569 0.044z"></path>
<path fill="#fff" style="fill: var(--color1, #fff)" d="M4.074 24.677c0.232 0.1 0.485 0.151 0.753 0.151 0.147 0 0.297-0.016 0.446-0.047 0.12-0.025 0.247-0.064 0.386-0.119-0.133-0.121-0.269-0.252-0.412-0.396-0.163-0.164-0.266-0.422-0.322-0.598-0.532 0.262-1.070 0.367-1.592 0.307 0.006 0.016 0.012 0.032 0.019 0.048 0.134 0.28 0.39 0.512 0.721 0.655z"></path>
<path fill="#fff" style="fill: var(--color1, #fff)" d="M4.888 31.63c0.039-0.008 0.080-0.020 0.122-0.035s0.084-0.036 0.128-0.059c0.185-0.101 0.358-0.269 0.489-0.476-0.124-0.18-0.141-0.347-0.141-0.475 0-0.044 0.004-0.094 0.013-0.149 0.006-0.035 0.013-0.070 0.022-0.105s0.019-0.072 0.030-0.107c0.054-0.164 0.132-0.307 0.218-0.403l0.043-0.047 0.201 0.182-0.042 0.047c-0.060 0.067-0.119 0.178-0.161 0.305-0.010 0.030-0.019 0.059-0.025 0.088s-0.013 0.056-0.017 0.083c-0.007 0.039-0.010 0.074-0.010 0.105 0 0.141 0.034 0.244 0.112 0.346 0.104 0.137 0.295 0.279 0.583 0.437 0.090 0.049 0.188 0.074 0.299 0.074 0.112 0 0.23-0.025 0.329-0.049 0.003-0.021 0.006-0.042 0.013-0.064 0.042-0.14 0.13-0.27 0.248-0.367 0.14-0.114 0.317-0.174 0.511-0.175 0.062 0 0.134 0.010 0.225 0.030 0.059-0.084 0.11-0.191 0.146-0.306 0.010-0.032 0.019-0.068 0.027-0.103 0.007-0.034 0.013-0.069 0.018-0.103 0.005-0.040 0.008-0.077 0.008-0.112 0-0.116-0.045-0.234-0.133-0.349-0.081-0.105-0.182-0.186-0.237-0.23-0.090-0.072-0.385-0.196-0.528-0.251l-0.255-0.096 0.231-0.146c0.289-0.183 0.61-0.263 0.948-0.237 0.275 0.020 0.57 0.11 0.878 0.266 0.131-0.118 0.404-0.382 0.694-0.766l0.053-0.070 0.085 0.019c0.132 0.030 1.26 0.307 1.428 1.148 0.149 0.007 0.467-0.032 0.784-0.446 0.107-0.14 0.126-0.49 0.098-0.756-0.005-0.045-0.011-0.084-0.017-0.115-0.006-0.029-0.010-0.039-0.010-0.039-0.121-0.211-0.461-0.464-0.865-0.644-0.070-0.032-0.141-0.059-0.211-0.083-0.072-0.025-0.137-0.044-0.195-0.056l-0.054-0.018 0.004-0.058 0.042-0.189h0.051c0.088 0.018 0.164 0.040 0.239 0.066 0.071 0.024 0.149 0.055 0.234 0.092 0.345 0.153 0.811 0.444 0.992 0.759l0.005 0.010c0.010 0.020 0.019 0.047 0.027 0.078 0.117-0.043 0.201-0.091 0.262-0.149 0.097-0.094 0.144-0.217 0.144-0.376-0.001-0.225-0.023-0.39-0.071-0.517s-0.123-0.222-0.236-0.295c-0.374-0.241-1.014-0.537-1.085-0.57l-0.148-0.068 0.091-0.133c0.031-0.046 0.067-0.094 0.103-0.142 0.159-0.214 0.323-0.434 0.323-0.769 0-0.147-0.022-0.245-0.074-0.329-0.060-0.098-0.169-0.191-0.344-0.294-0.16-0.093-0.338-0.153-0.561-0.187-0.222-0.033-0.47-0.038-0.682-0.038h-0.027c-0.5 0-0.971-0.239-1.232-0.624-0.054-0.080-0.1-0.166-0.134-0.256-0.036-0.093-0.059-0.188-0.072-0.285-0.006-0.047-0.009-0.096-0.009-0.147-0.001-0.313 0.040-0.674 0.342-0.968 0.285-0.278 0.771-0.47 1.527-0.604 0.085-0.015 0.188-0.023 0.316-0.023 0.174 0 0.367 0.014 0.537 0.027l0.022 0.001c-0.176-0.181-0.318-0.375-0.415-0.569-0.035-0.068-0.063-0.135-0.085-0.199-0.024-0.069-0.042-0.136-0.053-0.2-0.011-0.057-0.016-0.116-0.016-0.173-0.001-0.241 0.028-0.487 0.080-0.693 0.011-0.045 0.024-0.089 0.039-0.131s0.029-0.081 0.046-0.117c0.015-0.033 0.031-0.063 0.047-0.090 0.068-0.109 0.166-0.207 0.253-0.294l0.026-0.026c0.031-0.032 0.084-0.084 0.109-0.116-0.194-0.062-0.399-0.097-0.624-0.106-0.288-0.013-0.619 0.012-1.018 0.075l-0.004 0.004-0.027 0c-0.196 0.031-0.448 0.038-0.67 0.044-0.243 0.006-0.494 0.013-0.687 0.048-0.369 0.068-0.671 0.137-0.95 0.218-0.287 0.084-0.56 0.185-0.833 0.309-0.572 0.26-0.981 0.539-1.288 0.876-0.275 0.303-0.443 0.62-0.634 1.005l-0.008 0.012c-0.021 0.040-0.055 0.085-0.099 0.134-0.046 0.051-0.102 0.104-0.166 0.158-0.17 0.143-0.8 0.621-1.757 0.757-0.389 0.056-0.63 0.085-0.834 0.058-0.139-0.018-0.259-0.060-0.374-0.135 0.042 0.333 0.231 0.914 0.991 1.294 0.106 0.053 0.212 0.096 0.318 0.132 0.106 0.034 0.213 0.060 0.32 0.079 0.547 0.094 1.129-0.023 1.706-0.34l0.157-0.086 0.040 0.175c0.004 0.018 0.099 0.436 0.296 0.635 0.376 0.378 0.754 0.741 1.224 1.004 0.472 0.265 1.040 0.431 1.788 0.521l0.127 0.016-0.009 0.127c0 0.002-0.021 0.583-0.777 1.441-0.033 0.038-0.069 0.076-0.107 0.114-0.060 0.059-0.126 0.117-0.196 0.173s-0.143 0.108-0.215 0.154c-0.368 0.236-0.782 0.371-1.135 0.371v0c-0.198 0-0.392-0.019-0.543-0.16-0.124-0.115-0.209-0.302-0.284-0.624-0.059-0.254-0.118-0.389-0.21-0.477-0.099-0.096-0.258-0.159-0.532-0.211-0.033-0.007-0.064-0.010-0.095-0.012l-0.032-0.002c-0.018 0-0.036 0.001-0.053 0.003-0.137 0.010-0.226 0.058-0.263 0.1-0.046 0.116-0.261 0.567-0.819 0.666-0.093 0.071-0.148 0.136-0.177 0.209-0.021 0.053-0.028 0.117-0.031 0.181 0.177-0.016 0.332-0.004 0.481 0.043 0.238 0.074 0.463 0.233 0.729 0.512l0.044 0.046-0.196 0.187-0.044-0.046c-0.233-0.244-0.422-0.38-0.614-0.44-0.18-0.057-0.369-0.053-0.647 0.016-0.396 0.096-0.372 0.423-0.358 0.512 0.054 0.094 0.233 0.47-0.028 1.012-0.016 0.134 0.030 0.318 0.12 0.483 0.077 0.141 0.174 0.246 0.246 0.271l0.020 0.004c-0.006-0.002 0-0.006 0.008-0.011 0.007-0.032 0.014-0.111 0.020-0.18 0.027-0.302 0.068-0.756 0.454-1.052 0.050-0.039 0.107-0.073 0.171-0.103 0.061-0.029 0.126-0.053 0.195-0.072 0.357-0.1 0.815-0.072 1.169 0.074l0.059 0.024-0.103 0.25-0.059-0.024c-0.182-0.074-0.391-0.114-0.602-0.114-0.138 0-0.272 0.017-0.391 0.050-0.054 0.015-0.106 0.034-0.153 0.056-0.045 0.020-0.085 0.045-0.119 0.071-0.294 0.227-0.328 0.61-0.35 0.862-0.007 0.074-0.013 0.138-0.023 0.192 0.005-0.004 0.009-0.007 0.013-0.010 0.098-0.068 0.2-0.106 0.286-0.106 0.058 0 0.117 0.015 0.177 0.044 0.081 0.040 0.157 0.105 0.22 0.187 0.066 0.085 0.116 0.188 0.147 0.298 0.022 0.079 0.033 0.164 0.033 0.249 0 0.050-0.004 0.102-0.012 0.155-0.003 0.015-0.006 0.030-0.009 0.047-0.008 0.034-0.016 0.064-0.026 0.091-0.005 0.015-0.011 0.030-0.018 0.044 0.018 0.020 0.039 0.041 0.062 0.061 0.032 0.028 0.066 0.054 0.104 0.079l0.014 0.010c0.198 0.128 0.439 0.203 0.648 0.203v0.064l0.002-0.064c0.037 0 0.077-0.004 0.12-0.013z"></path>
<path fill="#fff" style="fill: var(--color1, #fff)" d="M22.612 4.711c-0.033 0.003-0.065 0.006-0.096 0.011-0.037 0.006-0.072 0.014-0.105 0.024-0.031 0.010-0.059 0.021-0.086 0.036-0.123 0.065-0.182 0.179-0.182 0.348 0 0.042 0.004 0.083 0.012 0.122 0.005 0.025 0.011 0.049 0.019 0.072s0.017 0.043 0.028 0.062c0.044 0.080 0.111 0.129 0.198 0.146 0.041 0.008 0.093 0.014 0.156 0.018 0.067 0.005 0.142 0.008 0.221 0.010 0.068 0.002 0.14 0.002 0.215 0.002 0.37 0 0.812-0.018 1.010-0.035 0.025-0.002 0.047-0.011 0.069-0.026 0.024-0.017 0.047-0.042 0.068-0.074s0.041-0.072 0.055-0.114c0.032-0.090 0.045-0.177 0.044-0.228 0-0.036-0.005-0.073-0.013-0.111-0.016-0.066-0.044-0.127-0.081-0.177-0.037-0.049-0.082-0.085-0.131-0.104-0.029-0.011-0.059-0.016-0.090-0.016-0.172 0.002-0.422 0.006-0.669 0.011-0.291 0.007-0.505 0.015-0.64 0.023z"></path>
<path fill="#fff" style="fill: var(--color1, #fff)" d="M7.794 31.956c0.34-0.258 0.278-0.697 0.234-0.878-0.213-0.046-0.39-0.009-0.517 0.094-0.075 0.061-0.132 0.145-0.16 0.236-0.001 0.003-0.002 0.006-0.003 0.008 0.297 0.134 0.406 0.366 0.445 0.54z"></path>
<path fill="#fff" style="fill: var(--color1, #fff)" d="M3.705 31.149c0.005-0.015 0.010-0.033 0.014-0.052l0.006-0.028c0.007-0.040 0.010-0.078 0.010-0.116 0-0.061-0.008-0.121-0.024-0.178-0.021-0.075-0.055-0.146-0.1-0.204-0.038-0.050-0.083-0.088-0.125-0.109-0.027-0.013-0.046-0.016-0.056-0.016-0.030 0-0.080 0.022-0.133 0.058-0.047 0.032-0.095 0.078-0.14 0.131-0.048 0.057-0.087 0.12-0.118 0.186-0.046 0.099-0.069 0.2-0.068 0.302 0 0.099 0.018 0.176 0.040 0.232 0.132-0.099 0.36-0.213 0.694-0.204z"></path>
<path fill="#fff" style="fill: var(--color1, #fff)" d="M25.256 7.799c0.068-0.199 0.099-0.423 0.098-0.705-0.001-0.558-0.342-0.971-0.661-1.172-0.073-0.046-0.149-0.084-0.225-0.112-0.075-0.028-0.151-0.047-0.223-0.055-0.026-0.003-0.052-0.005-0.075-0.005-0.038 0.020-0.087 0.041-0.146 0.046-0.202 0.017-0.653 0.036-1.027 0.036-0.078 0-0.154-0.001-0.227-0.003-0.087-0.002-0.167-0.005-0.234-0.011-0.074-0.005-0.137-0.012-0.184-0.022-0.080-0.015-0.152-0.045-0.214-0.089-0.032 0.005-0.060 0.011-0.090 0.017-0.039 0.009-0.078 0.020-0.115 0.034-0.208 0.073-0.4 0.204-0.541 0.371-0.158 0.186-0.255 0.389-0.313 0.657-0.056 0.256-0.079 0.573-0.078 1.057 0.001 0.298 0.073 0.604 0.213 0.911 0.15 0.327 0.382 0.663 0.69 1 0.355 0.389 0.554 0.643 0.688 0.876 0.15 0.263 0.217 0.505 0.218 0.788 0 0.299-0.107 0.549-0.203 0.713 0.176-0.021 0.332-0.067 0.468-0.135 0.068-0.035 0.133-0.076 0.189-0.123 0.336-0.272 0.37-0.646 0.374-0.718 0.014-0.284-0.006-0.533-0.060-0.76-0.044-0.186-0.112-0.361-0.212-0.547l-0.016-0.028c-0.035-0.063-0.073-0.125-0.112-0.185-0.064-0.098-0.128-0.189-0.189-0.276-0.2-0.282-0.388-0.548-0.389-0.8l-0-0.063h0.271v0.063c0 0.165 0.165 0.397 0.339 0.644 0.066 0.093 0.134 0.19 0.195 0.284 0.044 0.068 0.085 0.135 0.123 0.203 0.121 0.219 0.202 0.423 0.254 0.642 0.051 0.215 0.074 0.45 0.069 0.715 0.010-0.003 0.019-0.007 0.029-0.010 0.055-0.023 0.108-0.053 0.158-0.092 0.046-0.036 0.089-0.080 0.13-0.13 0.178-0.221 0.256-0.529 0.256-0.736 0-0.035-0.002-0.073-0.005-0.111-0.043-0.594-0.409-1.124-0.702-1.55-0.181-0.264-0.336-0.487-0.379-0.677l-0.014-0.062 0.265-0.059 0.014 0.061c0.032 0.141 0.18 0.355 0.338 0.582 0.248 0.36 0.553 0.802 0.687 1.314 0.334-0.322 0.274-0.848 0.238-1.146-0.058-0.126-0.24-0.503-0.397-0.686-0.029-0.034-0.059-0.066-0.089-0.098-0.166-0.174-0.323-0.338-0.433-0.922l-0.012-0.063 0.266-0.049 0.012 0.062c0.096 0.505 0.219 0.635 0.363 0.785 0.032 0.034 0.065 0.069 0.099 0.108 0.128 0.149 0.264 0.399 0.355 0.581 0.074-0.117 0.128-0.231 0.169-0.35z"></path>
<path fill="#fff" style="fill: var(--color1, #fff)" d="M11.644 8.84c-0.007 0.002-0.023 0.005-0.057 0.017-0.035 0.012-0.078 0.030-0.129 0.052-0.228 0.099-0.622 0.3-1.056 0.538-0.29 0.159-0.602 0.262-1.010 0.335-0.464 0.083-1.075 0.126-1.866 0.134l-0.151 0.001-0.147-0.001c-0.020 0.269 0.009 0.475 0.079 0.557 0.038 0.044 0.070 0.088 0.101 0.13 0.061 0.083 0.112 0.152 0.177 0.201 0.011 0.009 0.025 0.017 0.044 0.025 0.020 0.010 0.044 0.019 0.071 0.028 0.085 0.029 0.184 0.048 0.269 0.052-0.054-0.125-0.086-0.251-0.1-0.391l-0.014-0.148h0.149c0.014 0 0.274-0.004 0.73 0.003 0.296 0.004 0.521-0.002 0.716-0.023 0.214-0.024 0.413-0.069 0.626-0.14 0.061-0.020 0.118-0.039 0.168-0.054 0.147-0.047 0.3-0.092 0.454-0.135s0.315-0.083 0.479-0.123c0.836-0.201 1.659-0.321 2.201-0.322 0.048 0 0.095 0.002 0.14 0.006 0.131 0.011 0.271 0.038 0.419 0.080-0.030-0.019-0.052-0.031-0.057-0.035l-0.041-0.023-0.019-0.042c-0.202-0.469-0.642-0.612-0.905-0.698-0.080-0.026-0.144-0.049-0.197-0.077l-0.464 0.023c-0.278 0.013-0.544 0.026-0.611 0.031h-0.001z"></path>
<path fill="#fff" style="fill: var(--color1, #fff)" d="M10.738 8.601c-0.058-0.010-0.111-0.018-0.155-0.023-0.067-0.009-0.123-0.013-0.159-0.013-0.116 0-0.3 0.016-0.469 0.033-0.089 0.071-0.194 0.139-0.313 0.204s-0.256 0.129-0.407 0.188c-0.811 0.317-1.901 0.468-3.002 0.41 0.004 0.174 0.038 0.527 0.243 0.738 0.121 0.124 0.291 0.183 0.496 0.171-0.039-0.261 0.002-0.544 0.002-0.548l0.014-0.116h0.119c0.012 0 0.135 0.004 0.418 0.001 0.774-0.007 1.369-0.050 1.821-0.131 0.379-0.068 0.666-0.162 0.928-0.306 0.19-0.104 0.635-0.344 0.968-0.498-0.101-0.028-0.212-0.054-0.328-0.078-0.057-0.012-0.117-0.022-0.175-0.032z"></path>
<path fill="#fff" style="fill: var(--color1, #fff)" d="M10.007 7.471c0.053 0.032 0.093 0.054 0.133 0.070 0.035 0.014 0.074 0.024 0.137 0.037-0.025-0.077-0.038-0.161-0.038-0.254l-0.001-0.060c-0.001-0.070-0.001-0.122-0.003-0.163-0.064 0.004-0.084 0.010-0.089 0.013l-0.016 0.033h0.001l-0.004 0.008 0.001 0c-0.019 0.040-0.046 0.099-0.074 0.169-0.018 0.044-0.033 0.095-0.047 0.148z"></path>
<path fill="#fff" style="fill: var(--color1, #fff)" d="M18.25 13.076h-0.025c-0.041 0-0.081-0.001-0.121-0.003-0.116-0.005-0.233-0.015-0.346-0.031-0.116-0.017-0.233-0.041-0.349-0.071-0.643-0.171-1.145-0.533-1.491-1.076-0.009-0.014-0.022-0.029-0.038-0.046l-0.014-0.015c-0.041-0.041-0.097-0.085-0.168-0.133-0.081-0.055-0.176-0.112-0.284-0.168-0.502-0.264-1.28-0.53-1.796-0.53-0.452 0.001-0.941 0.084-1.054 0.104-0.426 0.199-0.696 0.396-0.85 0.618-0.139 0.202-0.187 0.428-0.218 0.728-0.030 0.286 0 0.48 0.034 0.599 0.337-0.267 1.208-0.883 2.056-0.885 0.484 0 1.047 0.21 1.549 0.575 0.117 0.085 0.237 0.183 0.355 0.291 0.12 0.111 0.238 0.232 0.35 0.361 0.055 0.063 0.109 0.129 0.161 0.195 0.279 0.231 0.534 0.386 0.794 0.477 0.22 0.078 0.449 0.113 0.741 0.113v0.063l0.008-0.063c0.863-0.003 1.268-0.754 1.427-1.176-0.013 0.003-0.027 0.006-0.042 0.009-0.215 0.041-0.456 0.063-0.678 0.064z"></path>
<path fill="#fff" style="fill: var(--color1, #fff)" d="M7.999 13.238l0.077 0.001c0.052 0 0.106-0.001 0.16-0.004 0.076-0.003 0.153-0.009 0.233-0.017 0.437-0.044 0.873-0.16 1.296-0.346 0.121-0.053 0.238-0.107 0.353-0.16l0.040-0.018c0.452-0.209 0.8-0.361 1.084-0.383 0.036-0.281 0.095-0.517 0.25-0.741 0.116-0.167 0.28-0.317 0.51-0.464-0.243 0.007-0.537 0.026-0.802 0.079-0.374 0.075-0.587 0.195-0.792 0.31-0.208 0.117-0.404 0.228-0.727 0.279-0.051 0.056-0.139 0.114-0.267 0.175-0.105 0.050-0.241 0.105-0.415 0.168-0.945 0.339-1.359 0.399-1.661 0.443l-0.085 0.013c0.005 0.031 0.010 0.057 0.018 0.082 0.016 0.052 0.039 0.104 0.067 0.154 0.141 0.248 0.413 0.424 0.662 0.429z"></path>
<path fill="#fff" style="fill: var(--color1, #fff)" d="M6.269 10.39c-0.044 0.017-0.093 0.039-0.146 0.064-0.268 0.129-0.638 0.355-0.81 0.494-0.166 0.135-0.358 0.235-0.572 0.298-0.158 0.047-0.327 0.075-0.531 0.087-0.092 0.006-0.215 0.009-0.365 0.009-0.044 0-0.085-0.001-0.121-0.001 0.042 0.204 0.188 0.563 0.689 0.749 0.124-0.030 0.225-0.058 0.315-0.088l0.020-0.007c0.118-0.039 0.287-0.13 0.467-0.226 0.229-0.123 0.473-0.251 0.725-0.349l0.014-0.056 0.068 0.012c0.059-0.043 0.128-0.086 0.203-0.129 0.095-0.054 0.204-0.11 0.324-0.166 0.114-0.053 0.234-0.104 0.347-0.148 0.125-0.048 0.241-0.086 0.339-0.112-0.012-0.017-0.024-0.034-0.037-0.051-0.030-0.041-0.060-0.083-0.094-0.122-0.017-0.020-0.032-0.043-0.047-0.070-0.314 0.036-0.564-0.034-0.747-0.202-0.012 0.004-0.025 0.008-0.040 0.013z"></path>
<path fill="#fff" style="fill: var(--color1, #fff)" d="M11.979 21.365l0.142 0.010c0.076 0.006 0.148 0.011 0.219 0.015-0.011-0.034-0.023-0.069-0.036-0.101-0.077-0.209-0.155-0.424-0.156-0.704-0.001-0.286 0.063-0.631 0.126-0.965 0.049-0.265 0.099-0.531 0.115-0.753 0.004-0.051 0.006-0.098 0.006-0.141-0.001-0.154-0.115-0.483-0.305-0.765-0.051-0.075-0.107-0.147-0.167-0.211-0.064-0.070-0.13-0.128-0.195-0.176-0.071-0.053-0.145-0.093-0.22-0.123l-0.045-0.017-0.252 0.308c0.238 0.145 0.653 0.471 0.654 0.979 0 0.11-0.087 0.205-0.201 0.318l-0.024 0.025c-0.078 0.077-0.166 0.164-0.216 0.246-0.012 0.018-0.022 0.038-0.032 0.059-0.012 0.027-0.024 0.057-0.036 0.091s-0.022 0.071-0.032 0.11c-0.046 0.183-0.073 0.411-0.073 0.626 0 0.039 0.004 0.080 0.012 0.126 0.009 0.051 0.022 0.102 0.042 0.158 0.019 0.053 0.043 0.109 0.072 0.167 0.13 0.256 0.342 0.51 0.6 0.718z"></path>
<path fill="#fff" style="fill: var(--color1, #fff)" d="M5.111 13.929c0.224 0.139 0.533 0.21 0.944 0.216l0.087-0.038c0.51-0.22 1.083-0.466 1.483-0.689-0.216-0.098-0.406-0.269-0.523-0.474-0.038-0.067-0.069-0.138-0.091-0.21-0.012-0.040-0.020-0.080-0.025-0.12-0.156 0.023-0.236 0.032-0.275 0.036-0.344 0.205-0.746 0.434-1.126 0.597-0.311 0.134-0.591 0.212-0.852 0.24 0.092 0.195 0.216 0.34 0.378 0.441z"></path>
<path fill="#fff" style="fill: var(--color1, #fff)" d="M17.449 7.216c-0.22-0.181-0.277-0.429-0.337-0.69-0.025-0.108-0.053-0.23-0.095-0.342-0.078-0.207-0.161-0.35-0.278-0.482-0.113-0.128-0.262-0.249-0.512-0.421-0.311-0.212-0.646-0.294-0.872-0.324-0.056-0.008-0.112-0.013-0.167-0.016-0.010-0-0.019-0.001-0.028-0.002 0.004 0.060 0.007 0.121 0.010 0.184 0.012 0.304 0.024 0.619 0.129 0.745 0.066 0.079 0.149 0.137 0.254 0.177 0.116 0.044 0.261 0.068 0.44 0.073l0.171 0.006-0.044 0.165c-0.009 0.030-0.079 0.263-0.269 0.488 0.286 0.118 0.507 0.259 0.69 0.436 0.234 0.228 0.429 0.528 0.614 0.945 0.023 0.053 0.049 0.1 0.074 0.146l0.002 0.004c0.921-0.081 1.117-0.624 1.159-0.881-0.096 0.009-0.192 0.016-0.283 0.016-0.268-0-0.464-0.068-0.656-0.227z"></path>
<path fill="#fff" style="fill: var(--color1, #fff)" d="M1.613 9.206v0c0.123 0 0.23-0.021 0.299-0.040 0.021-0.373-0.107-0.475-0.176-0.503-0.229 0.159-0.593 0.182-0.743 0.185l-0.051 0.001c-0.006 0-0.011 0-0.016 0 0.161 0.237 0.391 0.357 0.686 0.357z"></path>
<path fill="#fff" style="fill: var(--color1, #fff)" d="M10.118 5.844c-0.049 0-0.096-0.002-0.143-0.007 0 0.030 0.004 0.066 0.015 0.109 0.025 0.095 0.083 0.227 0.178 0.404 0.038-0.010 0.062-0.020 0.084-0.032l0.003-0.040c0.012-0.176 0.024-0.318 0.059-0.446-0.054 0.006-0.113 0.011-0.196 0.011z"></path>
<path fill="#fff" style="fill: var(--color1, #fff)" d="M1.795 13.929c0.106 0.086 0.194 0.182 0.281 0.31 0.127-0.001 0.34-0.044 0.413-0.308-0.099-0.1-0.354-0.323-0.666-0.323-0.128 0-0.253 0.038-0.373 0.114 0.132 0.058 0.245 0.127 0.345 0.207z"></path>
</symbol>
</defs>
</svg>
